<svg width="20" height="20" viewBox="0 0 20 20" fill="none" xmlns="http://www.w3.org/2000/svg">
<path d="M9.99984 18.3333C3.84734 18.3333 1.6665 16.1525 1.6665 9.99996C1.6665 3.84746 3.84734 1.66663 9.99984 1.66663C10.3448 1.66663 10.6248 1.94663 10.6248 2.29163C10.6248 2.63663 10.3448 2.91663 9.99984 2.91663C4.5715 2.91663 2.9165 4.57163 2.9165 9.99996C2.9165 15.4283 4.5715 17.0833 9.99984 17.0833C15.4282 17.0833 17.0832 15.4283 17.0832 9.99996C17.0832 9.65496 17.3632 9.37496 17.7082 9.37496C18.0532 9.37496 18.3332 9.65496 18.3332 9.99996C18.3332 16.1525 16.1523 18.3333 9.99984 18.3333Z" fill="#0F89CB"/>
<path fill-rule="evenodd" clip-rule="evenodd" d="M16.0305 7.82161L16.9127 6.8255C17.8727 5.74133 17.7711 4.07883 16.6877 3.118C16.1627 2.653 15.4844 2.41966 14.7877 2.463C14.0877 2.5055 13.4461 2.81883 12.9811 3.34383L8.07774 8.88383C6.55774 10.5988 7.59774 12.8663 7.64274 12.9622C7.71691 13.1197 7.85358 13.2397 8.01941 13.2913C8.06691 13.3072 8.62024 13.4763 9.34941 13.4763C10.1702 13.4763 11.2144 13.2605 12.0077 12.3638L15.8979 7.97132C15.9236 7.95027 15.9479 7.92688 15.9706 7.90115C15.993 7.87587 16.013 7.84926 16.0305 7.82161ZM8.67358 12.163C9.19608 12.258 10.3494 12.3513 11.0719 11.5355L14.6143 7.53571L12.5547 5.71166L9.01441 9.713C8.27441 10.5472 8.51025 11.6597 8.67358 12.163ZM13.3831 4.77553L15.4436 6.59938L15.9769 5.99716C16.4794 5.42883 16.4269 4.55716 15.8594 4.05466C15.5836 3.81133 15.2261 3.68716 14.8636 3.7105C14.4969 3.73383 14.1611 3.89716 13.9169 4.17216L13.3831 4.77553Z" fill="#0F89CB"/>
</svg>
